<svg width="159" height="180" viewBox="0 0 159 180" fill="none" xmlns="http://www.w3.org/2000/svg">
<path fill-rule="evenodd" clip-rule="evenodd" d="M33.3981 52.4416H10.4375V45.355H33.3981V52.4416ZM61.461 52.4416H38.5004V45.355H61.461V52.4416Z" fill="#3A3A3A"/>
<path fill-rule="evenodd" clip-rule="evenodd" d="M58.9793 55.4068C55.3462 62.8833 48.0712 75.2671 38.1332 87.9351L32.5575 83.5611C42.1886 71.2843 48.8386 62.4251 52.2492 55.4067L58.9793 55.4068ZM32.685 94.5772C24.4666 104.151 14.725 113.533 3.86845 120.606L0 114.669C10.1215 108.074 19.3695 99.2094 27.3077 89.9615L32.685 94.5772Z" fill="#3A3A3A"/>
<path fill-rule="evenodd" clip-rule="evenodd" d="M49.1563 101.656C46.198 99.0169 43.0681 96.5494 40.9355 94.9781L45.1393 89.2729C47.4218 90.9548 50.7272 93.5607 53.8742 96.3685L49.1563 101.656ZM54.9399 107.483C53.8802 106.189 52.4717 104.734 50.8774 103.232L55.7359 98.0734C57.4494 99.6871 59.0966 101.374 60.4223 102.993C61.6744 104.521 62.9294 106.33 63.4523 108.16L56.6383 110.107C56.5339 109.741 56.0734 108.867 54.9399 107.483Z" fill="#3A3A3A"/>
<path fill-rule="evenodd" clip-rule="evenodd" d="M30.2832 21.4012V9.9209H37.3698V21.4012H30.2832ZM30.2832 35.4327V23.9524H37.3698V35.4327H30.2832Z" fill="#3A3A3A"/>
<path fill-rule="evenodd" clip-rule="evenodd" d="M30.2832 21.4012V9.9209H37.3698V21.4012H30.2832ZM30.2832 35.4327V23.9524H37.3698V35.4327H30.2832Z" fill="#3A3A3A"/>
<path fill-rule="evenodd" clip-rule="evenodd" d="M111.069 21.4012V9.9209H118.156V21.4012H111.069ZM111.069 35.4327V23.9524H118.156V35.4327H111.069Z" fill="#3A3A3A"/>
<path fill-rule="evenodd" clip-rule="evenodd" d="M111.069 144.849L111.069 121.889L118.156 121.889L118.156 144.849L111.069 144.849ZM111.069 172.912L111.069 149.952L118.156 149.952L118.156 172.912L111.069 172.912Z" fill="#3A3A3A"/>
<path fill-rule="evenodd" clip-rule="evenodd" d="M30.2832 133.156V100.629H37.3698V133.156H30.2832ZM30.2832 172.912V140.385H37.3698V172.912H30.2832Z" fill="#3A3A3A"/>
<path fill-rule="evenodd" clip-rule="evenodd" d="M72.0928 47.4798C72.0928 44.3488 74.631 41.8105 77.7621 41.8105H111.353V48.8972H84.8487C81.7176 48.8972 79.1794 51.4354 79.1794 54.5664V76.6058H72.0928V47.4798ZM119.29 41.8105H152.88C156.011 41.8105 158.549 44.3488 158.549 47.4798V76.6058H151.463V54.5664C151.463 51.4354 148.925 48.8972 145.793 48.8972H119.29V41.8105ZM72.0928 83.5506H79.1794V105.59C79.1794 108.721 81.7176 111.259 84.8487 111.259H111.353V118.346H77.7621C74.631 118.346 72.0928 115.808 72.0928 112.677V83.5506ZM158.549 83.5506V112.677C158.549 115.808 156.011 118.346 152.88 118.346H119.29V111.259H145.793C148.925 111.259 151.463 108.721 151.463 105.59V83.5506H158.549Z" fill="#3A3A3A"/>
<path fill-rule="evenodd" clip-rule="evenodd" d="M118.009 65.0482C119.274 72.1312 124.859 77.652 131.956 78.8348L143.668 80.7868L131.359 83.2943C124.566 84.6781 119.293 90.0463 118.03 96.863L115.758 109.133L113.502 96.9483C112.231 90.089 106.901 84.7008 100.056 83.3563L86.9756 80.7868L99.4755 78.7779C106.615 77.6305 112.249 72.094 113.52 64.9754L115.758 52.4404L118.009 65.0482Z" fill="#3A3A3A"/>
<path d="M26.0293 0C28.2969 0 30.2811 6.61416 30.2811 9.92124H37.3673C37.3673 1.98425 40.675 0 41.6198 0H26.0293Z" fill="#3A3A3A"/>
<path d="M106.815 0C109.083 0 111.067 6.61416 111.067 9.92124H118.153C118.153 1.98425 121.461 0 122.406 0H106.815Z" fill="#3A3A3A"/>
<path d="M41.6182 180C39.3506 180 37.3664 175.276 37.3664 172.913L30.2801 172.913C30.2801 178.583 26.9725 180 26.0276 180L41.6182 180Z" fill="#3A3A3A"/>
<path d="M122.403 180C120.136 180 118.152 175.276 118.152 172.913L111.065 172.913C111.065 178.583 107.758 180 106.813 180L122.403 180Z" fill="#3A3A3A"/>
<path d="M0.518555 56.6924C0.518555 54.4248 7.13272 52.4406 10.4398 52.4406L10.4398 45.3544C2.5028 45.3544 0.518554 42.0467 0.518554 41.1019L0.518555 56.6924Z" fill="#3A3A3A"/>
</svg>
