<svg width="239" height="170" viewBox="0 0 239 170" fill="none" xmlns="http://www.w3.org/2000/svg">
<path d="M222.333 155.065H218.042V157.654H222.333V155.065ZM218.042 161.064H222.308L222.333 158.4H218.042V161.064ZM220.262 163.453L220.536 163.279C226.699 165.669 225.376 169.552 223.48 168.258C223.281 167.585 222.881 166.864 222.407 166.117C220.886 166.913 218.865 167.934 216.27 169.154C216.17 169.477 215.946 169.701 215.696 169.776L214.474 167.337C214.923 167.237 215.522 167.113 216.27 166.963V154.019C215.647 154.592 214.973 155.09 214.299 155.538L214 155.314C216.096 153.223 218.316 149.39 219.164 147L221.884 148.021C221.809 148.269 221.584 148.444 221.135 148.469C226.299 150.41 224.129 153.223 222.707 152.028C222.383 151.157 221.634 149.912 220.661 148.792C219.713 150.36 218.291 152.153 216.669 153.671L218.141 154.343H219.414V151.431L221.809 151.68C221.759 151.929 221.584 152.128 221.135 152.202V154.343H222.333L223.206 153.397L224.927 154.916C224.778 155.09 224.453 155.289 224.054 155.364V162.209C224.004 162.308 223.306 162.682 222.632 162.682H222.308V161.786H218.042V166.54C219.239 166.266 220.611 165.943 222.033 165.594C221.459 164.798 220.836 164.026 220.262 163.453ZM228.295 167.187H234.208V162.657H228.295V167.187ZM233.509 154.492H228.295V158.55H233.509V154.492ZM233.983 161.935L234.931 160.915L237.027 162.483C236.902 162.657 236.528 162.856 236.104 162.956V169.054C236.079 169.203 235.131 169.652 234.507 169.652H234.208V167.909H228.295V169.328C228.295 169.552 227.597 170 226.798 170H226.499V152.899L228.42 153.771H233.285L234.233 152.725L236.353 154.318C236.204 154.492 235.854 154.692 235.405 154.766V159.894C235.356 160.043 234.432 160.417 233.809 160.417H233.509V159.247H228.295V161.935H233.983ZM235.954 149.116L238 151.082C237.8 151.281 237.526 151.306 237.077 151.356C236.503 151.854 235.555 152.7 234.881 153.123L234.582 152.974C234.682 152.451 234.857 151.655 234.956 150.983H226.973C226.948 151.978 226.649 152.75 226.274 153.173C225.825 153.596 224.877 153.721 224.578 153.098C224.279 152.576 224.578 151.978 225.102 151.63C225.651 151.132 226.299 149.863 226.274 148.842L226.699 148.867C226.823 149.365 226.923 149.838 226.948 150.261H229.792V147.1L232.586 147.348C232.536 147.672 232.337 147.896 231.813 147.996V150.261H234.807L235.954 149.116Z" fill="white"/>
<path d="M129.959 150.053H124.143L123.94 149.328H127.114L128.333 147.751C128.333 147.751 129.756 148.877 130.594 149.653C130.517 149.928 130.314 150.053 129.959 150.053ZM111.698 147L114.34 148.376C114.213 148.652 113.959 148.752 113.375 148.652C112.105 150.379 109.921 152.681 107.508 154.208L107.254 153.933C109.057 151.98 110.86 149.027 111.698 147ZM111.851 152.431L114.568 153.807C114.416 154.058 114.187 154.183 113.578 154.083C113.095 154.884 112.486 155.81 111.775 156.761L112.841 157.136C112.765 157.361 112.537 157.536 112.079 157.612V169.374C112.054 169.524 111.241 169.95 110.479 169.95H110.149V158.763C109.286 159.739 108.321 160.69 107.279 161.491L107 161.215C109.057 158.713 110.962 154.959 111.851 152.431ZM113.629 165.82L113.222 165.595C114.314 162.917 115.025 159.213 115.229 155.584L117.895 156.01C117.819 156.335 117.59 156.585 117.032 156.635C116.422 160.239 115.33 163.593 113.629 165.82ZM124.143 152.982H119.902V169.099C119.902 169.349 119.063 169.825 118.327 169.825H117.971V152.982H114.213L114.01 152.256H117.971V147.2L120.79 147.501C120.714 147.851 120.511 148.101 119.902 148.201V152.256H121.451L122.543 151.029C122.441 150.979 122.365 150.929 122.263 150.854C122.162 149.903 121.502 148.727 120.917 148.026L121.197 147.851C124.676 149.027 124.092 151.18 122.949 151.129C123.381 151.455 124.219 152.055 124.803 152.581C124.727 152.856 124.498 152.982 124.143 152.982ZM120.638 155.559L121.019 155.384C125.946 160.79 123.432 165.295 122.187 163.343C122.162 161.491 121.857 157.962 120.638 155.559ZM127.394 154.959L128.663 153.332C128.663 153.332 130.137 154.483 131 155.309C130.924 155.584 130.695 155.709 130.34 155.709H128.333V167.322C128.333 168.749 128.003 169.775 125.565 170C125.54 169.424 125.413 168.924 125.133 168.624C124.803 168.323 124.244 168.073 123.152 167.948V167.572C123.152 167.572 125.387 167.723 125.844 167.723C126.276 167.723 126.378 167.597 126.378 167.247V155.709H123.381L123.178 154.959H127.394Z" fill="white"/>
<path d="M5.58994 147.372L5.83619 147.198C11.0814 148.365 9.38223 152.21 7.51071 150.846C7.33833 149.63 6.4272 148.216 5.58994 147.372ZM0.763383 158.339H10.2934V155.386H3.29979L3.10278 154.667H10.2934V151.863H2.01927L1.82227 151.143H13.2238C13.864 149.903 14.5782 148.241 14.9968 147L17.8041 147.943C17.7056 148.241 17.4101 148.414 16.8929 148.365C16.1788 149.208 15.046 150.25 13.9625 151.143H18.0011L19.2816 149.531C19.2816 149.531 20.7099 150.647 21.621 151.466C21.5717 151.739 21.3255 151.863 20.9561 151.863H12.3373V154.667H16.8683L18.0749 153.153C18.0749 153.153 19.4786 154.22 20.3158 154.989C20.242 155.262 19.9957 155.386 19.6756 155.386H12.3373V158.339H18.7152L19.9957 156.726C19.9957 156.726 21.4732 157.843 22.3597 158.661C22.2859 158.934 22.0396 159.058 21.6949 159.058H0.985011L0.763383 158.339ZM22.1381 163.078H12.6081C14.4797 166.129 18.1981 167.32 23 167.767L22.9754 168.04C22.1627 168.263 21.621 168.933 21.424 169.876C16.6221 168.883 13.6178 167.097 12.0418 163.078H11.6724C10.8351 166.254 8.52034 168.487 0.172377 170L0 169.529C6.40257 167.817 8.61884 165.832 9.4561 163.078H0.443255L0.221628 162.358H9.62848C9.82548 161.465 9.89936 160.472 9.94861 159.406L12.9529 159.679C12.9036 160.026 12.6574 160.274 12.1156 160.348C12.0418 161.043 11.9679 161.713 11.8448 162.358H19.06L20.3651 160.721C20.3651 160.721 21.8919 161.862 22.7784 162.681C22.7045 162.954 22.4829 163.078 22.1381 163.078Z" fill="white"/>
<path fill-rule="evenodd" clip-rule="evenodd" d="M21.3646 7C21.3646 4.66667 19.9647 0 18.3647 0H29.3647C28.6981 0 26.3644 1.4 26.3644 7H26.3647V15.1H21.3647V7H21.3646ZM21.3647 16.9V25H26.3647V16.9H21.3647ZM7.36475 37H23.5647V32H7.36475L7.36475 32.0004C1.76475 32.0004 0.364746 29.6666 0.364746 29L0.364746 40C0.364746 38.4001 5.03141 37.0001 7.36475 37.0001V37ZM27.1647 37H43.3647V32H27.1647V37ZM26.9051 62.0434C33.9169 53.1054 39.0499 44.3679 41.6133 39.0928L36.8647 39.0928C34.4584 44.0446 29.7665 50.2953 22.9712 58.9573L26.9051 62.0434ZM2.72941 85.0947C10.3893 80.1042 17.2626 73.485 23.0611 66.7298L19.2671 63.4731C13.6663 69.998 7.14127 76.2528 0 80.9054L2.72941 85.0947ZM34.682 71.7245C32.5948 69.8622 30.3865 68.1213 28.8818 67.0126L31.8478 62.9873C33.4583 64.1739 35.7904 66.0125 38.0108 67.9936L34.682 71.7245ZM38.7627 75.8356C38.015 74.9227 37.0212 73.8958 35.8964 72.8365L39.3243 69.1966C40.5333 70.3351 41.6955 71.5254 42.6309 72.6674C43.5143 73.746 44.3997 75.022 44.7686 76.3131L39.961 77.6868C39.8873 77.4288 39.5624 76.812 38.7627 75.8356ZM78.3647 15.1V7H78.3646C78.3646 4.66667 76.9647 0 75.3647 0H86.3647C85.6981 0 83.3644 1.4 83.3644 7H83.3647V15.1H78.3647ZM78.3647 25V16.9H83.3647V25H78.3647ZM78.3647 86V102.2H83.3647V86H78.3647ZM78.3647 105.8V122H78.3651C78.3651 126 76.0314 127 75.3647 127H86.3647C84.7648 127 83.3649 123.667 83.3649 122H83.3647V105.8H78.3647ZM21.3647 93.95V71H26.3647V93.95H21.3647ZM21.3647 122V99.05H26.3647V122H26.3649C26.3649 123.667 27.7648 127 29.3647 127H18.3647C19.0314 127 21.3651 126 21.3651 122H21.3647ZM54.8647 29.5C52.6556 29.5 50.8647 31.2909 50.8647 33.5V54.05H55.8647V38.5C55.8647 36.2909 57.6556 34.5 59.8647 34.5H78.5647V29.5H54.8647ZM107.865 29.5H84.1647V34.5H102.865C105.074 34.5 106.865 36.2909 106.865 38.5V54.05H111.865V33.5C111.865 31.2909 110.074 29.5 107.865 29.5ZM55.8647 58.95H50.8647V79.5C50.8647 81.7091 52.6556 83.5 54.8647 83.5H78.5647V78.5H59.8647C57.6556 78.5 55.8647 76.7091 55.8647 74.5V58.95ZM111.865 79.5V58.95H106.865V74.5C106.865 76.7091 105.074 78.5 102.865 78.5H84.1647V83.5H107.865C110.074 83.5 111.865 81.7091 111.865 79.5ZM172.555 43H136.365V43.0001C134.031 43.0001 129.365 44.4001 129.365 46V35C129.365 35.6666 130.765 38.0004 136.365 38.0004V38H172.555V43ZM231.365 43H196.531V38H231.365V37.9999C233.698 37.9999 238.365 36.5999 238.365 35V46C238.365 45.3334 236.965 42.9996 231.365 42.9996V43ZM182.365 7V18.25H187.365V7H187.364C187.364 1.4 189.698 0 190.365 0H179.365C180.965 0 182.365 4.66667 182.365 7H182.365ZM182.365 20.75V28.5H187.365V20.75H182.365ZM182.365 82.95V51H187.365V82.95H182.365ZM182.365 122V90.05H187.365V122H187.365C187.365 123.667 188.765 127 190.365 127H179.365C180.031 127 182.365 126 182.365 122H182.365ZM159.129 80.3195C166.238 69.1034 170.052 57.8037 171.365 51.0001L167.122 51C165.944 57.1013 162.442 66.6528 155.679 77.3229L159.129 80.3195ZM133.285 106C142.393 100.673 149.623 93.5058 155.236 85.9787L152 82.6715C146.699 89.7798 139.902 96.5089 131.365 101.501L133.285 106ZM198.365 51.0001C199.612 57.8037 203.235 69.1034 209.989 80.3195L213.266 77.3229C206.841 66.6528 203.515 57.1013 202.396 51L198.365 51.0001ZM213.687 85.9787C219.02 93.5058 225.888 100.673 234.541 106L236.365 101.501C228.255 96.5089 221.797 89.7798 216.761 82.6715L213.687 85.9787ZM93.1013 55.6228C88.0938 54.7882 84.1533 50.893 83.2609 45.8955L81.6724 37L80.0931 45.8441C79.1962 50.8667 75.2215 54.773 70.1841 55.5826L61.3647 57L70.5939 58.8129C75.4235 59.7615 79.1841 63.5632 80.0804 68.4028L81.6724 77L83.2757 68.3426C84.1663 63.5331 87.8869 59.7455 92.6798 58.7692L101.365 57L93.1013 55.6228ZM184.941 32.3639C185.61 36.112 188.565 39.0334 192.321 39.6594L194.365 40L192.005 40.4807C188.41 41.213 185.62 44.0537 184.952 47.6608L184.519 50L184.094 47.7059C183.422 44.0762 180.601 41.225 176.979 40.5135L174.365 40L176.672 39.6293C180.45 39.0221 183.431 36.0923 184.103 32.3254L184.519 30L184.941 32.3639Z" fill="white"/>
</svg>
