<svg width="94" height="68" viewBox="0 0 94 68" fill="none" xmlns="http://www.w3.org/2000/svg">
<path d="M87.6776 61.1502H85.9854V62.171H87.6776V61.1502ZM85.9854 63.5159H87.6678L87.6776 62.4655H85.9854V63.5159ZM86.861 64.4582L86.9692 64.3895C89.3993 65.3318 88.8779 66.8632 88.1302 66.3527C88.0515 66.0877 87.894 65.803 87.7071 65.5085C87.107 65.8227 86.3101 66.2251 85.2869 66.7061C85.2475 66.8337 85.159 66.9221 85.0606 66.9515L84.5785 65.9895C84.7556 65.9503 84.9917 65.9012 85.2869 65.8423V60.7379C85.0409 60.9637 84.7753 61.16 84.5097 61.3367L84.3916 61.2483C85.218 60.4238 86.0936 58.9121 86.4281 57.9697L87.5005 58.3722C87.471 58.4704 87.3825 58.5391 87.2054 58.5489C89.2419 59.3145 88.386 60.4238 87.8252 59.9526C87.6973 59.609 87.4021 59.1182 87.0184 58.6765C86.6446 59.2949 86.0838 60.0017 85.4443 60.6005L86.0248 60.8655H86.5265V59.717L87.471 59.8152C87.4513 59.9133 87.3825 59.9919 87.2054 60.0213V60.8655H87.6776L88.0219 60.4925L88.7008 61.0913C88.6418 61.16 88.5139 61.2385 88.3565 61.268V63.9674C88.3368 64.0067 88.0613 64.1539 87.7957 64.1539H87.6678V63.8005H85.9854V65.6754C86.4576 65.5674 86.9988 65.4398 87.5595 65.3024C87.3333 64.9883 87.0873 64.684 86.861 64.4582ZM90.029 65.9306H92.3607V64.1441H90.029V65.9306ZM92.0852 60.9244H90.029V62.5244H92.0852V60.9244ZM92.2721 63.8594L92.646 63.457L93.4724 64.0754C93.4232 64.1441 93.2756 64.2226 93.1084 64.2619V66.6668C93.0985 66.7257 92.7247 66.9024 92.4787 66.9024H92.3607V66.2153H90.029V66.7748C90.029 66.8632 89.7535 67.0399 89.4387 67.0399H89.3206V60.2962L90.0782 60.6397H91.9966L92.3705 60.2274L93.2068 60.8557C93.1477 60.9244 93.01 61.0029 92.8329 61.0324V63.0545C92.8132 63.1134 92.4492 63.2606 92.2032 63.2606H92.0852V62.7993H90.029V63.8594H92.2721ZM93.0493 58.8041L93.8561 59.5796C93.7774 59.6581 93.6692 59.6679 93.4921 59.6876C93.2658 59.8839 92.8919 60.2176 92.6263 60.3845L92.5082 60.3256C92.5476 60.1195 92.6165 59.8053 92.6558 59.5403H89.5075C89.4977 59.933 89.3796 60.2373 89.2321 60.4041C89.055 60.571 88.6811 60.6201 88.5631 60.3747C88.445 60.1685 88.5631 59.933 88.7697 59.7955C88.9861 59.5992 89.2419 59.0986 89.2321 58.6961L89.3993 58.7059C89.4485 58.9023 89.4879 59.0888 89.4977 59.2556H90.6193V58.009L91.7212 58.1072C91.7015 58.2348 91.6228 58.3231 91.4162 58.3624V59.2556H92.5968L93.0493 58.8041Z" fill="white"/>
<path d="M51.2497 59.1738H48.9561L48.876 58.8876H50.1279L50.6087 58.2658C50.6087 58.2658 51.1695 58.7099 51.5 59.0159C51.47 59.1245 51.3899 59.1738 51.2497 59.1738ZM44.0486 57.9697L45.0902 58.5126C45.0402 58.6211 44.94 58.6606 44.7096 58.6211C44.2089 59.3021 43.3476 60.2101 42.3961 60.8122L42.296 60.7036C43.007 59.9338 43.7181 58.7692 44.0486 57.9697ZM44.1087 60.1114L45.1804 60.6542C45.1203 60.7529 45.0301 60.8023 44.7898 60.7628C44.5995 61.0786 44.3591 61.4438 44.0787 61.8189L44.4993 61.9669C44.4693 62.0557 44.3791 62.1248 44.1989 62.1544V66.7931C44.1889 66.8523 43.8684 67.0201 43.5679 67.0201H43.4377V62.6084C43.0972 62.9933 42.7166 63.3684 42.306 63.6842L42.1958 63.5756C43.007 62.5887 43.7582 61.1082 44.1087 60.1114ZM44.8098 65.3916L44.6496 65.3028C45.0802 64.2468 45.3606 62.7861 45.4408 61.355L46.4924 61.5228C46.4623 61.6511 46.3722 61.7498 46.1519 61.7695C45.9115 63.1907 45.4808 64.5133 44.8098 65.3916ZM48.9561 60.3286H47.2836V66.6846C47.2836 66.7833 46.9531 66.9708 46.6626 66.9708H46.5224V60.3286H45.0402L44.96 60.0423H46.5224V58.0487L47.6341 58.1671C47.6041 58.3053 47.524 58.404 47.2836 58.4435V60.0423H47.8945L48.3252 59.5587C48.2851 59.539 48.2551 59.5192 48.215 59.4896C48.175 59.1146 47.9146 58.6507 47.6842 58.3744L47.7944 58.3053C49.1665 58.7692 48.9361 59.6179 48.4854 59.5982C48.6557 59.7265 48.9862 59.9634 49.2165 60.1706C49.1865 60.2792 49.0964 60.3286 48.9561 60.3286ZM47.574 61.3451L47.7243 61.276C49.6672 63.4079 48.6757 65.1844 48.185 64.4146C48.175 63.6842 48.0548 62.2926 47.574 61.3451ZM50.2381 61.1082L50.7389 60.4667C50.7389 60.4667 51.3198 60.9207 51.6603 61.2464C51.6302 61.355 51.5401 61.4043 51.3999 61.4043H50.6087V65.9838C50.6087 66.5464 50.4785 66.951 49.517 67.0399C49.507 66.8129 49.4569 66.6155 49.3467 66.497C49.2165 66.3786 48.9962 66.2799 48.5656 66.2306V66.0825C48.5656 66.0825 49.4469 66.1417 49.6272 66.1417C49.7974 66.1417 49.8375 66.0924 49.8375 65.9542V61.4043H48.6557L48.5756 61.1082H50.2381Z" fill="white"/>
<path d="M2.20441 58.1165L2.30152 58.048C4.36998 58.5079 3.69991 60.0244 2.96187 59.4863C2.8939 59.0069 2.53459 58.4492 2.20441 58.1165ZM0.301043 62.4412H4.05922V61.2769H1.30128L1.22359 60.9931H4.05922V59.8875H0.796307L0.718619 59.6037H5.21484C5.46733 59.1145 5.74895 58.4589 5.91404 57.9697L7.0211 58.3415C6.98225 58.4589 6.86572 58.5274 6.66179 58.5079C6.38017 58.8405 5.93346 59.2515 5.50617 59.6037H7.09879L7.60376 58.9677C7.60376 58.9677 8.167 59.408 8.52631 59.7309C8.50689 59.8385 8.40978 59.8875 8.26412 59.8875H4.86524V60.9931H6.65208L7.12792 60.3963C7.12792 60.3963 7.68145 60.817 8.01163 61.1203C7.98249 61.2279 7.88538 61.2769 7.75914 61.2769H4.86524V62.4412H7.38041L7.88538 61.8052C7.88538 61.8052 8.46805 62.2455 8.81765 62.5684C8.78851 62.676 8.6914 62.7249 8.55545 62.7249H0.388443L0.301043 62.4412ZM8.73025 64.31H4.97206C5.71011 65.5135 7.17648 65.9831 9.07013 66.1593L9.06042 66.2669C8.73996 66.355 8.52631 66.6191 8.44862 66.9909C6.55497 66.5996 5.37022 65.8951 4.74871 64.31H4.60304C4.27287 65.5624 3.36003 66.443 0.0679775 67.0399L0 66.854C2.52488 66.1788 3.39887 65.3961 3.72905 64.31H0.174799L0.0873996 64.0263H3.79703C3.87471 63.674 3.90385 63.2827 3.92327 62.8619L5.10802 62.9696C5.0886 63.1065 4.99149 63.2044 4.77784 63.2337C4.74871 63.5077 4.71958 63.7719 4.67102 64.0263H7.51636L8.03105 63.3805C8.03105 63.3805 8.63313 63.8306 8.98273 64.1535C8.9536 64.2611 8.8662 64.31 8.73025 64.31Z" fill="white"/>
<path fill-rule="evenodd" clip-rule="evenodd" d="M8.42509 2.76048C8.42509 1.84032 7.87302 0 7.24208 0H11.58C11.3171 0 10.3968 0.552095 10.3968 2.76048L10.3969 2.76047V5.95473H8.42514V2.76047L8.42509 2.76048ZM8.42514 6.66457V9.85883H10.3969V6.66457H8.42514ZM2.9042 14.5911H9.29273V12.6193H2.9042L2.90421 12.6194C0.695831 12.6194 0.143736 11.6991 0.143736 11.4362L0.143736 15.7741C0.143736 15.1432 1.98405 14.5911 2.90421 14.5911L2.9042 14.5911ZM10.7124 14.5911H17.1009V12.6193H10.7124V14.5911ZM10.6101 24.4669C13.3753 20.9422 15.3994 17.4965 16.4103 15.4163L14.5377 15.4163C13.5888 17.369 11.7385 19.834 9.05877 23.2499L10.6101 24.4669ZM1.07635 33.5573C4.09706 31.5893 6.80756 28.979 9.09422 26.315L7.59806 25.0307C5.38934 27.6039 2.81619 30.0705 0 31.9052L1.07635 33.5573ZM13.677 28.2847C12.8539 27.5503 11.983 26.8638 11.3897 26.4266L12.5593 24.8392C13.1944 25.3071 14.1141 26.0322 14.9897 26.8135L13.677 28.2847ZM15.2862 29.906C14.9914 29.546 14.5995 29.141 14.1559 28.7233L15.5077 27.2878C15.9844 27.7368 16.4428 28.2062 16.8116 28.6566C17.16 29.0819 17.5092 29.5851 17.6547 30.0943L15.7588 30.636C15.7297 30.5343 15.6016 30.291 15.2862 29.906ZM30.9036 5.95473V2.76047L30.9035 2.76048C30.9035 1.84032 30.3515 0 29.7205 0H34.0584C33.7955 0 32.8752 0.552095 32.8752 2.76048L32.8753 2.76047V5.95473H30.9036ZM30.9036 9.85883V6.66457H32.8753V9.85883H30.9036ZM30.9036 33.9143V40.3029H32.8753V33.9143H30.9036ZM30.9036 41.7225V48.1111H30.9037C30.9037 49.6884 29.9834 50.0828 29.7205 50.0828H34.0584C33.4275 50.0828 32.8754 48.7683 32.8754 48.111H32.8753V41.7225H30.9036ZM8.42514 37.0495V27.999H10.3969V37.0495H8.42514ZM8.42514 48.1111V39.0607H10.3969V48.111H10.397C10.397 48.7683 10.949 50.0828 11.58 50.0828H7.24207C7.50496 50.0828 8.42527 49.6884 8.42529 48.1111H8.42514ZM21.6361 11.6336C20.7649 11.6336 20.0587 12.3398 20.0587 13.211V21.315H22.0305V15.1828C22.0305 14.3116 22.7367 13.6053 23.6079 13.6053H30.9823V11.6336H21.6361ZM42.5369 11.6336H33.1907V13.6053H40.5651C41.4363 13.6053 42.1425 14.3116 42.1425 15.1828V21.315H44.1143V13.211C44.1143 12.3398 43.4081 11.6336 42.5369 11.6336ZM22.0305 23.2473H20.0587V31.3512C20.0587 32.2224 20.7649 32.9287 21.6361 32.9287H30.9823V30.9569H23.6079C22.7367 30.9569 22.0305 30.2507 22.0305 29.3795V23.2473ZM44.1143 31.3513V23.2473H42.1425V29.3795C42.1425 30.2507 41.4363 30.9569 40.5651 30.9569H33.1907V32.9287H42.5369C43.4081 32.9287 44.1143 32.2224 44.1143 31.3513ZM68.0479 16.9572H53.776L53.776 16.9572C52.8559 16.9572 51.0156 17.5093 51.0156 18.1402V13.8023C51.0156 14.0652 51.5677 14.9855 53.776 14.9855L53.776 14.9854H68.0479V16.9572ZM91.2396 16.9572H77.503V14.9854L91.2395 14.9853C92.1597 14.9853 94 14.4333 94 13.8023V18.1402C94 17.8773 93.4479 16.957 91.2396 16.957V16.9572ZM71.9163 2.76047V7.19695H73.888V2.76047L73.8879 2.76048C73.8879 0.552095 74.8082 0 75.0711 0H70.7332C71.3641 0 71.9162 1.84032 71.9163 2.76047ZM71.9163 8.18283V11.2391H73.888V8.18283H71.9163ZM71.9163 32.7116V20.112H73.888V32.7116H71.9163ZM71.9163 48.1111V35.5115H73.888L73.8881 48.111C73.8881 48.7683 74.4401 50.0828 75.0711 50.0828H70.7332C70.9961 50.0828 71.9164 49.6884 71.9164 48.1111H71.9163ZM62.753 31.6742C65.5568 27.2511 67.0606 22.7951 67.5784 20.112L65.9051 20.112C65.4407 22.5181 64.0599 26.2847 61.3926 30.4925L62.753 31.6742ZM52.5614 41.8014C56.1534 39.7008 59.0044 36.8743 61.2181 33.9059L59.9419 32.6018C57.8514 35.4049 55.1708 38.0586 51.8043 40.0274L52.5614 41.8014ZM78.2259 20.112C78.7178 22.7951 80.1464 27.2511 82.81 31.6742L84.1024 30.4925C81.5685 26.2847 80.2567 22.5181 79.8155 20.112L78.2259 20.112ZM84.2681 33.9059C86.3712 36.8743 89.0796 39.7008 92.492 41.8014L93.2113 40.0274C90.0131 38.0586 87.4665 35.4049 85.4805 32.6018L84.2681 33.9059ZM36.7147 21.935C34.74 21.6059 33.186 20.0698 32.8341 18.099L32.2077 14.591L31.5849 18.0788C31.2312 20.0594 29.6637 21.5999 27.6772 21.9192L24.1992 22.4781L27.8388 23.193C29.7434 23.5671 31.2264 25.0663 31.5798 26.9749L32.2077 30.3652L32.8399 26.9511C33.1911 25.0545 34.6584 23.5608 36.5485 23.1758L39.9734 22.4781L36.7147 21.935ZM72.9321 12.7628C73.196 14.2409 74.3615 15.393 75.8425 15.6398L76.6485 15.7741L75.7179 15.9637C74.3003 16.2524 73.1999 17.3727 72.9365 18.7952L72.7656 19.7177L72.5981 18.813C72.333 17.3816 71.2208 16.2572 69.7923 15.9766L68.7614 15.7741L69.6711 15.6279C71.161 15.3885 72.3366 14.2331 72.6019 12.7476L72.7656 11.8306L72.9321 12.7628Z" fill="white"/>
</svg>
