<svg width="30" height="31" viewBox="0 0 30 31" fill="none" xmlns="http://www.w3.org/2000/svg">
<path d="M21.3007 0H8.74146C4.05256 0 0.251465 3.80109 0.251465 8.49V21.5517C0.251465 26.2406 4.05256 30.0417 8.74146 30.0417H21.3007C25.9897 30.0417 29.7907 26.2406 29.7907 21.5517V8.49C29.7907 3.80109 25.9897 0 21.3007 0ZM3.26566 8.49C3.26566 5.47052 5.72198 3.0142 8.74146 3.0142H21.3007C24.3202 3.0142 26.7765 5.47052 26.7765 8.49V21.5517C26.7765 24.5711 24.3202 27.0275 21.3007 27.0275H8.74146C5.72198 27.0275 3.26566 24.5711 3.26566 21.5517V8.49Z" fill="white"/>
<path d="M15.021 22.7572C19.2869 22.7572 22.7575 19.2866 22.7575 15.0208C22.7575 10.7549 19.2869 7.28418 15.021 7.28418C10.7552 7.28418 7.28467 10.7549 7.28467 15.0208C7.28467 19.2866 10.7552 22.7572 15.021 22.7572ZM15.021 9.69555C17.9573 9.69555 20.346 12.0844 20.346 15.0208C20.346 17.9571 17.9573 20.346 15.021 20.346C12.0848 20.346 9.69604 17.9571 9.69604 15.0208C9.69604 12.0844 12.0848 9.69555 15.021 9.69555Z" fill="white"/>
<path d="M22.9837 8.79184C23.9409 8.79184 24.7169 8.0158 24.7169 7.05852C24.7169 6.10123 23.9409 5.3252 22.9837 5.3252C22.0265 5.3252 21.2505 6.10123 21.2505 7.05852C21.2505 8.0158 22.0265 8.79184 22.9837 8.79184Z" fill="white"/>
</svg>
