<svg width="525" height="374" viewBox="0 0 525 374" fill="none" xmlns="http://www.w3.org/2000/svg">
<path d="M489.131 341.144H479.69V346.839H489.131V341.144ZM479.69 354.341H489.076L489.131 348.482H479.69V354.341ZM484.575 359.598L485.179 359.215C498.736 364.472 495.827 373.015 491.655 370.168C491.216 368.689 490.338 367.101 489.295 365.458C485.947 367.21 481.502 369.456 475.793 372.139C475.574 372.851 475.08 373.344 474.531 373.508L471.842 368.141C472.83 367.922 474.147 367.648 475.793 367.32V338.844C474.421 340.103 472.939 341.198 471.457 342.184L470.799 341.691C475.409 337.091 480.294 328.658 482.16 323.401L488.143 325.646C487.978 326.194 487.484 326.577 486.496 326.632C497.857 330.903 493.082 337.091 489.954 334.463C489.24 332.546 487.594 329.808 485.453 327.344C483.368 330.794 480.239 334.737 476.672 338.077L479.91 339.556H482.709V333.148L487.978 333.696C487.868 334.244 487.484 334.682 486.496 334.846V339.556H489.131L491.052 337.475L494.839 340.815C494.509 341.198 493.796 341.637 492.918 341.801V356.86C492.808 357.079 491.271 357.901 489.789 357.901H489.076V355.929H479.69V366.389C482.325 365.787 485.343 365.075 488.472 364.308C487.21 362.556 485.837 360.858 484.575 359.598ZM502.248 367.813H515.256V357.846H502.248V367.813ZM513.719 339.884H502.248V348.81H513.719V339.884ZM514.762 356.258L516.848 354.013L521.458 357.463C521.184 357.846 520.361 358.284 519.427 358.503V371.92C519.373 372.248 517.287 373.234 515.915 373.234H515.256V369.401H502.248V372.522C502.248 373.015 500.711 374.001 498.955 374.001H498.297V336.379L502.523 338.296H513.225L515.311 335.996L519.976 339.501C519.647 339.884 518.879 340.322 517.891 340.487V351.768C517.781 352.096 515.75 352.918 514.378 352.918H513.719V350.344H502.248V356.258H514.762ZM519.098 328.056L523.599 332.382C523.16 332.82 522.556 332.875 521.568 332.984C520.306 334.079 518.22 335.941 516.738 336.872L516.079 336.544C516.299 335.394 516.683 333.641 516.903 332.163H499.339C499.284 334.353 498.626 336.051 497.803 336.982C496.815 337.913 494.729 338.187 494.07 336.818C493.412 335.668 494.07 334.353 495.223 333.587C496.43 332.491 497.857 329.698 497.803 327.453L498.736 327.508C499.01 328.603 499.23 329.644 499.284 330.575H505.541V323.62L511.689 324.168C511.579 324.879 511.14 325.372 509.987 325.591V330.575H516.573L519.098 328.056Z" fill="#3A3A3A"/>
<path d="M285.91 330.118H273.115L272.668 328.521H279.652L282.334 325.053C282.334 325.053 285.463 327.53 287.306 329.237C287.139 329.843 286.692 330.118 285.91 330.118ZM245.737 323.401L251.548 326.429C251.268 327.035 250.71 327.255 249.425 327.035C246.631 330.834 241.826 335.899 236.518 339.258L235.959 338.652C239.926 334.358 243.893 327.861 245.737 323.401ZM246.072 335.349L252.051 338.377C251.715 338.928 251.212 339.203 249.871 338.983C248.81 340.745 247.469 342.782 245.905 344.874L248.251 345.7C248.084 346.196 247.581 346.581 246.575 346.746V372.624C246.519 372.955 244.731 373.891 243.055 373.891H242.329V349.279C240.429 351.426 238.306 353.519 236.015 355.281L235.4 354.675C239.926 349.169 244.117 340.91 246.072 335.349ZM249.983 364.806L249.089 364.31C251.492 358.419 253.056 350.27 253.503 342.286L259.37 343.222C259.202 343.938 258.699 344.489 257.47 344.599C256.129 352.528 253.727 359.906 249.983 364.806ZM273.115 336.56H263.784V372.019C263.784 372.569 261.94 373.615 260.32 373.615H259.538V336.56H251.268L250.821 334.963H259.538V323.841L265.739 324.502C265.572 325.273 265.125 325.824 263.784 326.044V334.963H267.192L269.595 332.266C269.371 332.155 269.204 332.045 268.98 331.88C268.757 329.788 267.304 327.2 266.019 325.658L266.633 325.273C274.288 327.861 273.003 332.596 270.489 332.486C271.438 333.202 273.282 334.523 274.567 335.679C274.4 336.285 273.897 336.56 273.115 336.56ZM265.404 342.231L266.242 341.846C277.082 353.739 271.55 363.65 268.812 359.355C268.757 355.281 268.086 347.517 265.404 342.231ZM280.266 340.91L283.06 337.331C283.06 337.331 286.301 339.864 288.2 341.681C288.033 342.286 287.53 342.562 286.748 342.562H282.334V368.109C282.334 371.248 281.607 373.505 276.244 374.001C276.188 372.734 275.908 371.633 275.294 370.973C274.567 370.312 273.338 369.761 270.936 369.486V368.66C270.936 368.66 275.852 368.99 276.858 368.99C277.808 368.99 278.031 368.715 278.031 367.944V342.562H271.438L270.991 340.91H280.266Z" fill="#3A3A3A"/>
<path d="M12.2979 324.22L12.8396 323.838C24.379 326.403 20.6409 334.864 16.5236 331.862C16.1443 329.187 14.1398 326.076 12.2979 324.22ZM1.67944 348.346H22.6454V341.85H7.25953L6.82612 340.268H22.6454V334.099H4.4424L4.00899 332.517H29.0923C30.5009 329.787 32.0719 326.13 32.9929 323.401L39.1689 325.475C38.9522 326.13 38.3021 326.512 37.1644 326.403C35.5934 328.259 33.1013 330.551 30.7176 332.517H39.6024L42.4195 328.969C42.4195 328.969 45.5617 331.425 47.5662 333.226C47.4578 333.827 46.9161 334.099 46.1034 334.099H27.142V340.268H37.1103L39.7649 336.938C39.7649 336.938 42.8529 339.285 44.6949 340.977C44.5323 341.578 43.9906 341.85 43.2863 341.85H27.142V348.346H41.1734L43.9906 344.798C43.9906 344.798 47.2411 347.254 49.1914 349.056C49.0289 349.656 48.4871 349.929 47.7287 349.929H2.16702L1.67944 348.346ZM48.7038 358.772H27.7379C31.8552 365.486 40.0358 368.106 50.6 369.088L50.5458 369.689C48.758 370.18 47.5662 371.654 47.1328 373.728C36.5685 371.545 29.9591 367.614 26.4919 358.772H25.6792C23.8373 365.759 18.7448 370.671 0.379229 374.001L0 372.964C14.0857 369.197 18.9615 364.831 20.8034 358.772H0.975161L0.487581 357.189H21.1827C21.6161 355.224 21.7786 353.04 21.8869 350.693L28.4964 351.294C28.388 352.058 27.8462 352.604 26.6544 352.767C26.4919 354.296 26.3293 355.77 26.0585 357.189H41.9319L44.8032 353.586C44.8032 353.586 48.1621 356.097 50.1124 357.898C49.9499 358.499 49.4623 358.772 48.7038 358.772Z" fill="#3A3A3A"/>
<path fill-rule="evenodd" clip-rule="evenodd" d="M47.0042 15.4C47.0042 10.2667 43.9244 0 40.4045 0H64.6046C63.138 0 58.004 3.07984 58.0037 15.399H58.0049V33.219H47.0049V15.4H47.0042ZM47.0049 37.179V54.999H58.0049V37.179H47.0049ZM16.2008 81.4009H51.8407V70.4009H16.2037V70.4003C3.88371 70.4003 0.803715 65.266 0.803715 63.7994L0.803716 87.9994C0.803716 84.4803 11.0664 81.4009 16.2008 81.3997V81.4009ZM59.7607 81.4009H95.4007V70.4009H59.7607V81.4009ZM59.1912 136.495C74.6172 116.831 85.9097 97.6089 91.5492 86.0038L81.1024 86.0037C75.8085 96.8977 65.4862 110.649 50.5366 129.706L59.1912 136.495ZM6.0047 187.208C22.8565 176.229 37.9776 161.666 50.7344 146.805L42.3877 139.64C30.0658 153.995 15.7108 167.756 0 177.992L6.0047 187.208ZM76.3012 157.794C71.7092 153.697 66.851 149.867 63.5407 147.427L70.0659 138.572C73.6089 141.182 78.7395 145.227 83.6244 149.586L76.3012 157.794ZM85.2787 166.838C83.6337 164.83 81.4474 162.571 78.9728 160.24L86.5142 152.232C89.1739 154.737 91.7307 157.356 93.7886 159.868C95.7321 162.241 97.6801 165.048 98.4917 167.889L87.915 170.911C87.7528 170.343 87.0381 168.986 85.2787 166.838ZM172.405 33.219V15.4H172.4C172.4 10.2667 169.32 0 165.8 0H190C188.534 0 183.4 3.07984 183.399 15.399H183.405V33.219H172.405ZM172.405 54.999V37.179H183.405V54.999H172.405ZM172.405 189.199V224.839H183.405V189.199H172.405ZM172.405 232.759V268.399H183.405V232.759H172.405ZM47.0049 206.689V156.199H58.0049V206.689H47.0049ZM47.0049 268.399V217.909H58.0049V268.399H47.0049ZM120.704 64.8993C115.844 64.8993 111.904 68.8392 111.904 73.6993V118.909H122.904V84.6993C122.904 79.8392 126.844 75.8993 131.704 75.8993H172.844V64.8993H120.704ZM237.304 64.8993H185.164V75.8993H226.304C231.164 75.8993 235.104 79.8392 235.104 84.6993V118.909H246.104V73.6993C246.104 68.8392 242.164 64.8993 237.304 64.8993ZM122.904 129.689H111.904V174.899C111.904 179.759 115.844 183.699 120.704 183.699H172.844V172.699H131.704C126.844 172.699 122.904 168.759 122.904 163.899V129.689ZM246.104 174.899V129.689H235.104V163.899C235.104 168.759 231.164 172.699 226.304 172.699H185.164V183.699H237.304C242.164 183.699 246.104 179.759 246.104 174.899ZM379.621 94.601H300.002V83.601H379.621V94.601ZM509.002 94.601H432.369V83.601H509.002V94.601ZM401.198 15.399V40.149H412.198V15.4H412.203C412.203 3.08 417.337 0 418.804 0H394.604C398.123 0 401.203 10.2654 401.203 15.399H401.198ZM401.198 45.649V62.699H412.198V45.649H401.198ZM401.198 182.49V112.2H412.198V182.49H401.198ZM401.198 268.4V198.11H412.198V268.4H401.198ZM350.083 176.703C365.725 152.028 374.114 127.168 377.003 112.2L367.668 112.2C365.077 125.623 357.374 146.636 342.493 170.111L350.083 176.703ZM293.227 233.2C313.265 221.481 329.17 205.713 341.52 189.153L334.401 181.877C322.738 197.516 307.784 212.32 289.003 223.303L293.227 233.2ZM436.399 112.2C439.144 127.168 447.113 152.028 461.973 176.703L469.183 170.111C455.047 146.636 447.729 125.623 445.268 112.2L436.399 112.2ZM470.108 189.153C481.84 205.713 496.95 221.481 515.987 233.2L519.999 223.303C502.157 212.32 487.951 197.516 476.871 181.877L470.108 189.153ZM204.827 122.37C193.81 120.534 185.141 111.964 183.178 100.97L179.683 81.3996L176.209 100.857C174.236 111.906 165.491 120.5 154.409 122.281L135.006 125.4L155.31 129.388C165.936 131.475 174.209 139.839 176.181 150.486L179.683 169.4L183.21 150.353C185.17 139.772 193.355 131.44 203.899 129.292L223.006 125.4L204.827 122.37ZM406.872 71.2007C408.344 79.4465 414.846 85.8736 423.108 87.2507L427.604 88.0001L422.413 89.0576C414.505 90.6686 408.365 96.9181 406.896 104.854L405.943 110L405.008 104.953C403.53 96.9678 397.324 90.6951 389.356 89.1298L383.604 88.0001L388.68 87.1844C396.991 85.8486 403.549 79.4032 405.029 71.1159L405.943 66.0001L406.872 71.2007ZM58.0026 268.4C58.0026 272.067 61.0825 279.4 64.6023 279.4H40.4023C41.8689 279.4 47.0032 277.2 47.0032 268.4H58.0026ZM189.998 279.4C186.478 279.4 183.398 272.067 183.398 268.4H172.399C172.399 277.2 167.265 279.4 165.798 279.4H189.998ZM284.6 101.2C284.6 97.6797 294.867 94.5998 300 94.5998V83.6004C287.68 83.6004 284.6 78.4661 284.6 76.9995V101.2ZM524.402 77.0012C524.402 80.5211 514.136 83.6009 509.002 83.6009V94.6004C521.322 94.6004 524.402 99.7347 524.402 101.201V77.0012ZM412.202 268.4C412.202 272.067 415.282 279.4 418.801 279.4H394.601C396.068 279.4 401.202 277.2 401.202 268.4H412.202Z" fill="#3A3A3A"/>
</svg>
