<svg width="66" height="42" viewBox="0 0 66 42" fill="none" xmlns="http://www.w3.org/2000/svg">
<path d="M58.211 0.686035H7.7889C3.49388 0.686035 0 4.18055 0 8.47545V15.6893V17.9992L2.28589 18.3271C3.60744 18.5166 4.60414 19.6658 4.60414 21.0002C4.60414 22.3338 3.60796 23.483 2.28705 23.6725L0 23.9994V26.3104V33.5253C0 37.8193 3.49388 41.3138 7.7889 41.3138H58.211C62.506 41.3138 66 37.8193 66 33.5253V26.3584V23.8152L63.4595 23.6964C62.0158 23.6289 60.8842 22.4441 60.8842 21.0004C60.8842 19.5566 62.0158 18.372 63.4605 18.3034L66 18.1836V15.6416V8.47558C66 4.18055 62.5061 0.686035 58.211 0.686035ZM63.3351 15.6416C60.4881 15.7759 58.2193 18.1201 58.2193 21.0004C58.2193 23.8808 60.4881 26.2249 63.3351 26.3582V33.5252C63.3351 36.3545 61.0408 38.6488 58.211 38.6488H7.7889C4.95902 38.6488 2.66488 36.3545 2.66488 33.5252V26.3103C5.26672 25.9376 7.26902 23.7057 7.26902 21.0002C7.26902 18.2949 5.26672 16.063 2.66488 15.6893V8.47545C2.66488 5.64519 4.95915 3.35091 7.7889 3.35091H58.211C61.0407 3.35091 63.3351 5.64519 63.3351 8.47545V15.6416Z" fill="white"/>
<path d="M17.0642 30.8179H15.3013V35.4158H17.0642V30.8179Z" fill="white"/>
<path d="M17.0642 22.7397H15.3013V27.3377H17.0642V22.7397Z" fill="white"/>
<path d="M17.0642 14.6611H15.3013V19.26H17.0642V14.6611Z" fill="white"/>
<path d="M17.0642 6.58398H15.3013V11.1819H17.0642V6.58398Z" fill="white"/>
</svg>
