<svg width="40" height="26" viewBox="0 0 40 26" fill="none" xmlns="http://www.w3.org/2000/svg">
<path d="M35.3765 0.890625H5.44874C2.89945 0.890625 0.825684 2.99528 0.825684 5.58198V9.92669V11.3179L2.18246 11.5154C2.96686 11.6295 3.55845 12.3216 3.55845 13.1253C3.55845 13.9285 2.96717 14.6206 2.18315 14.7347L0.825684 14.9316V16.3235V20.6688C0.825684 23.255 2.89945 25.3596 5.44874 25.3596H35.3765C37.9258 25.3596 39.9996 23.255 39.9996 20.6688V16.3524V14.8207L38.4917 14.7492C37.6348 14.7085 36.9632 13.9949 36.9632 13.1254C36.9632 12.2559 37.6348 11.5424 38.4923 11.5011L39.9996 11.429V9.89796V5.58206C39.9996 2.99528 37.9258 0.890625 35.3765 0.890625ZM38.4179 9.89796C36.728 9.97886 35.3814 11.3907 35.3814 13.1254C35.3814 14.8602 36.728 16.272 38.4179 16.3523V20.6687C38.4179 22.3728 37.0561 23.7546 35.3765 23.7546H5.44874C3.76908 23.7546 2.40741 22.3728 2.40741 20.6687V16.3234C3.95172 16.099 5.14017 14.7548 5.14017 13.1253C5.14017 11.496 3.95172 10.1518 2.40741 9.92669V5.58198C2.40741 3.87739 3.76916 2.49561 5.44874 2.49561H35.3765C37.056 2.49561 38.4179 3.87739 38.4179 5.58198V9.89796Z" fill="#0E0E0E"/>
<path d="M10.9531 19.0381H9.90674V21.8073H10.9531V19.0381Z" fill="#0E0E0E"/>
<path d="M10.9531 14.1729H9.90674V16.9421H10.9531V14.1729Z" fill="#0E0E0E"/>
<path d="M10.9531 9.30762H9.90674V12.0774H10.9531V9.30762Z" fill="#0E0E0E"/>
<path d="M10.9531 4.44287H9.90674V7.21209H10.9531V4.44287Z" fill="#0E0E0E"/>
</svg>
