<svg width="29" height="32" viewBox="0 0 29 32" fill="none" xmlns="http://www.w3.org/2000/svg">
<path fill-rule="evenodd" clip-rule="evenodd" d="M5.93735 9.32332H1.85547V8.06348H5.93735V9.32332ZM10.9263 9.32332H6.84444V8.06348H10.9263V9.32332Z" fill="#3A3A3A"/>
<path fill-rule="evenodd" clip-rule="evenodd" d="M10.4852 9.85011C9.83932 11.1793 8.54599 13.3808 6.77923 15.6329L5.78801 14.8553C7.5002 12.6728 8.68242 11.0978 9.28874 9.8501L10.4852 9.85011ZM5.81066 16.8137C4.34962 18.5158 2.61777 20.1837 0.687724 21.4411L0 20.3856C1.79937 19.2132 3.44346 17.6372 4.8547 15.9932L5.81066 16.8137Z" fill="#3A3A3A"/>
<path fill-rule="evenodd" clip-rule="evenodd" d="M8.73881 18.0721C8.21289 17.6029 7.65647 17.1642 7.27734 16.8848L8.02468 15.8706C8.43046 16.1696 9.01808 16.6329 9.57755 17.132L8.73881 18.0721ZM9.76701 19.108C9.57861 18.8779 9.32821 18.6192 9.04479 18.3523L9.90852 17.4351C10.2131 17.722 10.506 18.0219 10.7417 18.3097C10.9643 18.5815 11.1874 18.903 11.2803 19.2283L10.0689 19.5744C10.0504 19.5094 9.96852 19.354 9.76701 19.108Z" fill="#3A3A3A"/>
<path fill-rule="evenodd" clip-rule="evenodd" d="M5.38281 3.80461V1.76367H6.64265V3.80461H5.38281ZM5.38281 6.2991V4.25816H6.64265V6.2991H5.38281Z" fill="#3A3A3A"/>
<path fill-rule="evenodd" clip-rule="evenodd" d="M5.38281 3.80461V1.76367H6.64265V3.80461H5.38281ZM5.38281 6.2991V4.25816H6.64265V6.2991H5.38281Z" fill="#3A3A3A"/>
<path fill-rule="evenodd" clip-rule="evenodd" d="M19.7451 3.80461V1.76367H21.005V3.80461H19.7451ZM19.7451 6.2991V4.25816H21.005V6.2991H19.7451Z" fill="#3A3A3A"/>
<path fill-rule="evenodd" clip-rule="evenodd" d="M19.7451 25.7508L19.7451 21.6689L21.005 21.6689L21.005 25.7508L19.7451 25.7508ZM19.7451 30.7398L19.7451 26.6579L21.005 26.6579L21.005 30.7398L19.7451 30.7398Z" fill="#3A3A3A"/>
<path fill-rule="evenodd" clip-rule="evenodd" d="M5.38281 23.6718V17.8892H6.64265V23.6718H5.38281ZM5.38281 30.7395V24.9569H6.64265V30.7395H5.38281Z" fill="#3A3A3A"/>
<path fill-rule="evenodd" clip-rule="evenodd" d="M12.8164 8.44049C12.8164 7.88386 13.2676 7.43262 13.8243 7.43262H19.7959V8.69246H15.0841C14.5275 8.69246 14.0762 9.1437 14.0762 9.70033V13.6184H12.8164V8.44049ZM21.2069 7.43262H27.1786C27.7352 7.43262 28.1865 7.88386 28.1865 8.44049V13.6184H26.9266V9.70033C26.9266 9.1437 26.4754 8.69246 25.9188 8.69246H21.2069V7.43262ZM12.8164 14.8531H14.0762V18.7712C14.0762 19.3278 14.5275 19.7791 15.0841 19.7791H19.7959V21.0389H13.8243C13.2676 21.0389 12.8164 20.5877 12.8164 20.031V14.8531ZM28.1865 14.8531V20.031C28.1865 20.5877 27.7352 21.0389 27.1786 21.0389H21.2069V19.7791H25.9188C26.4754 19.7791 26.9266 19.3278 26.9266 18.7712V14.8531H28.1865Z" fill="#3A3A3A"/>
<path fill-rule="evenodd" clip-rule="evenodd" d="M20.981 11.5641C21.2059 12.8233 22.1987 13.8048 23.4605 14.0151L25.5426 14.3621L23.3543 14.8079C22.1466 15.0539 21.2091 16.0082 20.9847 17.2201L20.5808 19.4015L20.1796 17.2353C19.9538 16.0158 19.0062 15.0579 17.7893 14.8189L15.4639 14.3621L17.6861 14.005C18.9553 13.801 19.9568 12.8167 20.1828 11.5512L20.5808 9.32275L20.981 11.5641Z" fill="#3A3A3A"/>
<path d="M4.62793 0C5.03106 0 5.3838 1.17585 5.3838 1.76378H6.64358C6.64358 0.352755 7.23161 0 7.39958 0H4.62793Z" fill="#3A3A3A"/>
<path d="M18.9902 0C19.3934 0 19.7461 1.17585 19.7461 1.76378H21.0059C21.0059 0.352755 21.5939 0 21.7619 0H18.9902Z" fill="#3A3A3A"/>
<path d="M7.39844 32C6.99531 32 6.64257 31.1601 6.64257 30.7402L5.38279 30.7402C5.38279 31.748 4.79476 32 4.62679 32L7.39844 32Z" fill="#3A3A3A"/>
<path d="M21.7607 32C21.3576 32 21.0049 31.1601 21.0049 30.7402L19.7451 30.7402C19.7451 31.748 19.1571 32 18.9891 32L21.7607 32Z" fill="#3A3A3A"/>
<path d="M0.0927734 10.0786C0.0927734 9.67548 1.26862 9.32275 1.85655 9.32275L1.85655 8.06297C0.445529 8.06297 0.0927733 7.47493 0.0927733 7.30696L0.0927734 10.0786Z" fill="#3A3A3A"/>
</svg>
