<svg width="39" height="26" viewBox="0 0 39 26" fill="none" xmlns="http://www.w3.org/2000/svg">
<path d="M5.67587 25.3763C10.2582 25.786 14.8404 25.9914 19.423 25.9911C23.9821 25.9914 28.5414 25.7874 33.1008 25.3816C33.1203 25.38 33.1397 25.3789 33.159 25.3771C33.163 25.3768 33.167 25.3766 33.1707 25.3763L33.1251 24.8652L33.1249 24.8603L33.171 25.3766C35.3206 25.1835 37.0808 23.5779 37.4594 21.4487C37.9521 18.6639 38.1994 15.8929 38.1991 13.1218C38.1994 10.3508 37.9525 7.57984 37.4594 4.79622C37.0811 2.66668 35.3209 1.06023 33.1704 0.868285C28.589 0.457413 24.0076 0.252637 19.4259 0.25293C14.8425 0.252637 10.2591 0.458073 5.67594 0.868285C3.52579 1.0603 1.76466 2.66638 1.38731 4.79651C0.894215 7.57925 0.646973 10.3505 0.646973 13.1221C0.646973 15.8929 0.893921 18.6642 1.38731 21.4487C1.76488 23.5782 3.52601 25.1835 5.67587 25.3763ZM2.70603 13.1221C2.70632 10.4729 2.94205 7.82393 3.41482 5.15545C3.62825 3.94579 4.6316 3.02848 5.85923 2.91898C10.3819 2.51449 14.904 2.31191 19.4259 2.31162C23.946 2.31191 28.4661 2.51361 32.987 2.91898C34.2141 3.02848 35.2177 3.94579 35.4317 5.15575C35.9042 7.82444 36.1399 10.4732 36.1402 13.1218C36.1399 15.7703 35.9042 18.4192 35.4317 21.0897C35.218 22.2985 34.2143 23.2156 32.987 23.3256C28.4651 23.7298 23.9439 23.9321 19.4229 23.9324C14.9019 23.9321 10.381 23.7295 5.85945 23.3256C4.63123 23.2156 3.62818 22.2982 3.41475 21.0897C2.94212 18.4198 2.70632 15.7706 2.70603 13.1221Z" fill="white"/>
<path d="M17.2321 17.8159L24.5049 13.6175C24.8865 13.3973 24.8865 12.8466 24.5049 12.6266L17.2321 8.42794C16.8516 8.2079 16.374 8.48353 16.374 8.92389V17.3212C16.374 17.7612 16.8516 18.0362 17.2321 17.8159Z" fill="white"/>
</svg>
